<svg width="1962" height="330" viewBox="0 0 1962 330" fill="none" xmlns="http://www.w3.org/2000/svg">
<path d="M74.0909 252.273L255.909 70.4546M255.909 252.273L74.0909 70.4546M15 160.455H315M165 315V15" stroke="#FAFAFA" stroke-width="30" stroke-linecap="round" stroke-linejoin="round"/>
<path d="M430.815 255V74.6364H543.895V98.0625H458.028V153.017H537.994V176.355H458.028V231.574H544.952V255H430.815ZM570.691 255V119.727H597.024V255H570.691ZM583.99 98.8551C579.41 98.8551 575.476 97.3286 572.189 94.2756C568.959 91.1638 567.345 87.465 567.345 83.179C567.345 78.8343 568.959 75.1354 572.189 72.0824C575.476 68.9706 579.41 67.4148 583.99 67.4148C588.569 67.4148 592.474 68.9706 595.703 72.0824C598.991 75.1354 600.635 78.8343 600.635 83.179C600.635 87.465 598.991 91.1638 595.703 94.2756C592.474 97.3286 588.569 98.8551 583.99 98.8551ZM681.725 308.545C670.981 308.545 661.734 307.136 653.984 304.318C646.292 301.5 640.01 297.772 635.137 293.134C630.264 288.495 626.624 283.417 624.217 277.898L646.85 268.562C648.435 271.146 650.549 273.876 653.191 276.753C655.892 279.688 659.532 282.184 664.111 284.239C668.75 286.294 674.709 287.321 681.989 287.321C691.97 287.321 700.219 284.884 706.736 280.011C713.254 275.197 716.512 267.506 716.512 256.938V230.341H714.839C713.254 233.218 710.964 236.418 707.969 239.94C705.034 243.463 700.983 246.516 695.816 249.099C690.649 251.683 683.927 252.974 675.648 252.974C664.963 252.974 655.334 250.479 646.762 245.489C638.249 240.439 631.497 233.012 626.506 223.207C621.575 213.344 619.109 201.22 619.109 186.835C619.109 172.451 621.545 160.121 626.418 149.847C631.35 139.572 638.102 131.705 646.674 126.244C655.246 120.725 664.963 117.966 675.825 117.966C684.22 117.966 691.002 119.375 696.168 122.193C701.335 124.953 705.357 128.182 708.234 131.881C711.169 135.58 713.43 138.838 715.015 141.656H716.952V119.727H742.756V257.994C742.756 269.619 740.056 279.16 734.654 286.616C729.253 294.073 721.943 299.592 712.725 303.173C703.566 306.755 693.233 308.545 681.725 308.545ZM681.461 231.134C689.035 231.134 695.434 229.372 700.66 225.849C705.944 222.268 709.936 217.16 712.637 210.526C715.397 203.832 716.776 195.818 716.776 186.483C716.776 177.383 715.426 169.368 712.725 162.44C710.024 155.512 706.061 150.111 700.836 146.236C695.611 142.302 689.152 140.335 681.461 140.335C673.535 140.335 666.93 142.39 661.646 146.5C656.361 150.551 652.369 156.07 649.668 163.057C647.026 170.044 645.705 177.852 645.705 186.483C645.705 195.348 647.056 203.128 649.756 209.821C652.457 216.514 656.45 221.74 661.734 225.497C667.076 229.255 673.652 231.134 681.461 231.134ZM828.933 257.73C815.605 257.73 804.127 254.883 794.498 249.188C784.928 243.434 777.53 235.361 772.305 224.969C767.138 214.518 764.555 202.277 764.555 188.244C764.555 174.388 767.138 162.176 772.305 151.608C777.53 141.04 784.811 132.791 794.146 126.861C803.54 120.931 814.519 117.966 827.083 117.966C834.716 117.966 842.114 119.228 849.277 121.753C856.439 124.277 862.868 128.241 868.564 133.642C874.259 139.044 878.75 146.06 882.038 154.69C885.326 163.262 886.97 173.684 886.97 185.955V195.29H779.439V175.562H861.166C861.166 168.634 859.757 162.499 856.939 157.156C854.12 151.755 850.157 147.498 845.049 144.386C840 141.275 834.07 139.719 827.26 139.719C819.862 139.719 813.403 141.539 807.885 145.179C802.424 148.76 798.197 153.457 795.203 159.27C792.267 165.024 790.799 171.277 790.799 178.028V193.44C790.799 202.482 792.385 210.173 795.555 216.514C798.784 222.855 803.276 227.699 809.029 231.045C814.783 234.333 821.506 235.977 829.197 235.977C834.188 235.977 838.738 235.273 842.848 233.864C846.957 232.396 850.51 230.223 853.504 227.347C856.498 224.47 858.788 220.918 860.373 216.69L885.296 221.182C883.3 228.521 879.719 234.95 874.552 240.469C869.444 245.929 863.015 250.186 855.265 253.239C847.574 256.233 838.796 257.73 828.933 257.73ZM935.079 174.682V255H908.746V119.727H934.022V141.744H935.695C938.807 134.581 943.68 128.828 950.315 124.483C957.008 120.138 965.433 117.966 975.59 117.966C984.808 117.966 992.881 119.903 999.809 123.778C1006.74 127.595 1012.11 133.29 1015.93 140.864C1019.74 148.437 1021.65 157.802 1021.65 168.957V255H995.317V172.128C995.317 162.323 992.763 154.661 987.655 149.142C982.548 143.564 975.531 140.776 966.607 140.776C960.501 140.776 955.07 142.097 950.315 144.739C945.618 147.381 941.889 151.256 939.13 156.364C936.429 161.413 935.079 167.519 935.079 174.682ZM1051.64 255V74.6364H1164.72V98.0625H1078.85V153.017H1158.82V176.355H1078.85V231.574H1165.78V255H1051.64ZM1212.3 119.727L1242.15 172.392L1272.27 119.727H1301.07L1258.89 187.364L1301.42 255H1272.63L1242.15 204.449L1211.77 255H1182.88L1224.98 187.364L1183.41 119.727H1212.3ZM1320.67 305.727V119.727H1346.38V141.656H1348.59C1350.11 138.838 1352.31 135.58 1355.19 131.881C1358.07 128.182 1362.06 124.953 1367.17 122.193C1372.28 119.375 1379.03 117.966 1387.42 117.966C1398.34 117.966 1408.09 120.725 1416.66 126.244C1425.23 131.763 1431.96 139.719 1436.83 150.111C1441.76 160.503 1444.23 173.009 1444.23 187.628C1444.23 202.247 1441.79 214.782 1436.92 225.233C1432.05 235.625 1425.35 243.639 1416.84 249.276C1408.33 254.853 1398.61 257.642 1387.69 257.642C1379.47 257.642 1372.75 256.262 1367.52 253.503C1362.35 250.743 1358.3 247.514 1355.37 243.815C1352.43 240.116 1350.17 236.829 1348.59 233.952H1347V305.727H1320.67ZM1346.47 187.364C1346.47 196.875 1347.85 205.212 1350.61 212.375C1353.37 219.538 1357.36 225.145 1362.59 229.196C1367.81 233.188 1374.21 235.185 1381.79 235.185C1389.66 235.185 1396.23 233.1 1401.52 228.932C1406.8 224.705 1410.79 218.98 1413.49 211.759C1416.25 204.537 1417.63 196.405 1417.63 187.364C1417.63 178.439 1416.28 170.425 1413.58 163.321C1410.94 156.217 1406.95 150.61 1401.6 146.5C1396.32 142.39 1389.71 140.335 1381.79 140.335C1374.16 140.335 1367.7 142.302 1362.41 146.236C1357.19 150.17 1353.22 155.659 1350.52 162.705C1347.82 169.75 1346.47 177.97 1346.47 187.364ZM1492.62 74.6364V255H1466.29V74.6364H1492.62ZM1577.59 257.73C1564.91 257.73 1553.84 254.824 1544.39 249.011C1534.93 243.199 1527.6 235.067 1522.37 224.616C1517.14 214.166 1514.53 201.954 1514.53 187.98C1514.53 173.948 1517.14 161.677 1522.37 151.168C1527.6 140.658 1534.93 132.497 1544.39 126.685C1553.84 120.872 1564.91 117.966 1577.59 117.966C1590.27 117.966 1601.34 120.872 1610.79 126.685C1620.24 132.497 1627.58 140.658 1632.81 151.168C1638.03 161.677 1640.65 173.948 1640.65 187.98C1640.65 201.954 1638.03 214.166 1632.81 224.616C1627.58 235.067 1620.24 243.199 1610.79 249.011C1601.34 254.824 1590.27 257.73 1577.59 257.73ZM1577.68 235.625C1585.9 235.625 1592.71 233.453 1598.11 229.108C1603.51 224.763 1607.5 218.98 1610.09 211.759C1612.73 204.537 1614.05 196.581 1614.05 187.892C1614.05 179.261 1612.73 171.335 1610.09 164.114C1607.5 156.833 1603.51 150.991 1598.11 146.588C1592.71 142.185 1585.9 139.983 1577.68 139.983C1569.4 139.983 1562.53 142.185 1557.07 146.588C1551.67 150.991 1547.65 156.833 1545 164.114C1542.42 171.335 1541.13 179.261 1541.13 187.892C1541.13 196.581 1542.42 204.537 1545 211.759C1547.65 218.98 1551.67 224.763 1557.07 229.108C1562.53 233.453 1569.4 235.625 1577.68 235.625ZM1662.6 255V119.727H1688.05V141.216H1689.46C1691.93 133.936 1696.27 128.211 1702.49 124.043C1708.78 119.815 1715.88 117.702 1723.81 117.702C1725.45 117.702 1727.39 117.76 1729.62 117.878C1731.91 117.995 1733.7 118.142 1734.99 118.318V143.506C1733.93 143.212 1732.05 142.889 1729.35 142.537C1726.65 142.126 1723.95 141.92 1721.25 141.92C1715.03 141.92 1709.48 143.241 1704.61 145.884C1699.79 148.467 1695.98 152.078 1693.16 156.716C1690.34 161.295 1688.93 166.521 1688.93 172.392V255H1662.6ZM1803.8 257.73C1790.47 257.73 1778.99 254.883 1769.36 249.188C1759.79 243.434 1752.39 235.361 1747.17 224.969C1742 214.518 1739.42 202.277 1739.42 188.244C1739.42 174.388 1742 162.176 1747.17 151.608C1752.39 141.04 1759.67 132.791 1769.01 126.861C1778.4 120.931 1789.38 117.966 1801.95 117.966C1809.58 117.966 1816.98 119.228 1824.14 121.753C1831.3 124.277 1837.73 128.241 1843.43 133.642C1849.12 139.044 1853.61 146.06 1856.9 154.69C1860.19 163.262 1861.83 173.684 1861.83 185.955V195.29H1754.3V175.562H1836.03C1836.03 168.634 1834.62 162.499 1831.8 157.156C1828.98 151.755 1825.02 147.498 1819.91 144.386C1814.86 141.275 1808.93 139.719 1802.12 139.719C1794.72 139.719 1788.27 141.539 1782.75 145.179C1777.29 148.76 1773.06 153.457 1770.07 159.27C1767.13 165.024 1765.66 171.277 1765.66 178.028V193.44C1765.66 202.482 1767.25 210.173 1770.42 216.514C1773.65 222.855 1778.14 227.699 1783.89 231.045C1789.65 234.333 1796.37 235.977 1804.06 235.977C1809.05 235.977 1813.6 235.273 1817.71 233.864C1821.82 232.396 1825.37 230.223 1828.37 227.347C1831.36 224.47 1833.65 220.918 1835.24 216.69L1860.16 221.182C1858.16 228.521 1854.58 234.95 1849.42 240.469C1844.31 245.929 1837.88 250.186 1830.13 253.239C1822.44 256.233 1813.66 257.73 1803.8 257.73ZM1883.61 255V119.727H1909.06V141.216H1910.47C1912.94 133.936 1917.28 128.211 1923.5 124.043C1929.79 119.815 1936.89 117.702 1944.82 117.702C1946.46 117.702 1948.4 117.76 1950.63 117.878C1952.92 117.995 1954.71 118.142 1956 118.318V143.506C1954.94 143.212 1953.07 142.889 1950.36 142.537C1947.66 142.126 1944.96 141.92 1942.26 141.92C1936.04 141.92 1930.49 143.241 1925.62 145.884C1920.8 148.467 1916.99 152.078 1914.17 156.716C1911.35 161.295 1909.94 166.521 1909.94 172.392V255H1883.61Z" fill="#FAFAFA"/>
</svg>
